<svg width="429" height="55" viewBox="0 0 429 55" fill="none" xmlns="http://www.w3.org/2000/svg">
<path d="M259.796 53.2797C256.67 53.3238 253.577 52.5861 250.758 51.1246C248.086 49.7098 245.712 47.717 243.783 45.2689C241.833 42.7999 240.305 39.9757 239.269 36.9282C237.65 32.3118 237.236 27.3021 238.074 22.4484C238.911 17.5947 240.967 13.084 244.017 9.40945C245.997 7.02283 248.386 5.07264 251.051 3.66703C253.84 2.25555 256.885 1.53276 259.965 1.5503C263.044 1.56784 266.082 2.32536 268.857 3.76854C271.522 5.22749 273.883 7.25895 275.797 9.73872C277.715 12.223 279.232 15.038 280.287 18.0664C281.888 22.665 282.297 27.6495 281.471 32.4812C280.644 37.3129 278.614 41.8088 275.598 45.4843C273.636 47.8829 271.243 49.8237 268.564 51.1883C265.825 52.5922 262.827 53.3071 259.796 53.2797ZM242.317 27.4085C242.308 30.1378 242.737 32.8486 243.583 35.4199C244.388 37.9129 245.603 40.2273 247.171 42.2516C248.703 44.2214 250.589 45.8345 252.715 46.9926C254.956 48.165 257.414 48.7679 259.903 48.7547C262.392 48.7415 264.846 48.1126 267.075 46.9165C269.201 45.7132 271.076 44.0523 272.585 42.0362C274.129 39.9971 275.32 37.674 276.102 35.1785C276.884 32.6755 277.28 30.0505 277.274 27.4085C277.284 24.6915 276.856 21.9934 276.008 19.4355C275.19 16.9451 273.963 14.635 272.386 12.6161C270.86 10.6388 268.972 9.025 266.841 7.87574C264.613 6.72666 262.175 6.13549 259.707 6.14646C257.239 6.15743 254.805 6.77002 252.587 7.93888C250.457 9.12338 248.58 10.7772 247.077 12.7937C245.543 14.8403 244.353 17.1607 243.56 19.6509C242.744 22.1424 242.324 24.7654 242.317 27.4085Z" fill="#100824"/>
<path d="M336.497 39.9199C336.534 42.3484 335.906 44.7348 334.691 46.7776C333.478 48.7818 331.801 50.4072 329.826 51.4926C327.76 52.6404 325.467 53.2278 323.144 53.204H302.818C302.534 53.204 302.253 53.1435 301.992 53.0263C301.73 52.9091 301.493 52.7372 301.292 52.5207C301.092 52.3041 300.933 52.0473 300.825 51.7643C300.716 51.4814 300.66 51.1781 300.66 50.8718V3.97197C300.66 3.66628 300.716 3.36359 300.825 3.08133C300.933 2.79907 301.092 2.54242 301.293 2.32686C301.493 2.11129 301.731 1.94073 301.993 1.82491C302.254 1.70908 302.535 1.65056 302.818 1.65223H323.613C325.708 1.58144 327.766 2.25335 329.475 3.56595C331.102 4.83509 332.399 6.53863 333.237 8.50995C334.1 10.4703 334.549 12.6131 334.551 14.784C334.562 17.2901 333.933 19.7508 332.733 21.8949C331.562 24.0403 329.806 25.7411 327.705 26.7627C330.31 27.537 332.593 29.2498 334.176 31.6176C335.76 34.0403 336.575 36.9536 336.497 39.9199ZM305.361 8.43382V22.7824C305.361 23.0887 305.417 23.3919 305.526 23.6749C305.634 23.9579 305.792 24.2153 305.993 24.4319C306.193 24.6484 306.431 24.8203 306.693 24.9375C306.954 25.0547 307.235 25.1145 307.518 25.1145H321.738C323.22 25.1432 324.674 24.6736 325.899 23.7708C327.116 22.8529 328.111 21.6326 328.801 20.212C329.49 18.7914 329.854 17.2122 329.861 15.6078C329.878 13.9594 329.533 12.3302 328.854 10.8544C328.215 9.47517 327.268 8.29043 326.099 7.40702C324.932 6.54795 323.547 6.10474 322.136 6.13945H307.518C306.948 6.13944 306.401 6.38314 305.997 6.8178C305.593 7.25245 305.364 7.84282 305.361 8.45919V8.43382ZM331.808 39.0454C331.818 37.3645 331.447 35.7063 330.729 34.2159C330.041 32.7807 329.039 31.5491 327.81 30.6286C326.577 29.7101 325.111 29.2276 323.613 29.2471H307.518C307.235 29.2471 306.954 29.3075 306.693 29.4248C306.431 29.542 306.193 29.7138 305.993 29.9304C305.792 30.147 305.634 30.4038 305.526 30.6867C305.417 30.9697 305.361 31.273 305.361 31.5792V46.4477C305.361 46.7534 305.417 47.0561 305.526 47.3384C305.634 47.6206 305.793 47.8773 305.994 48.0929C306.194 48.3084 306.432 48.479 306.693 48.5948C306.955 48.7106 307.235 48.7692 307.518 48.7675H323.144C324.691 48.7877 326.209 48.3111 327.505 47.3984C328.798 46.4887 329.868 45.2536 330.623 43.7987C331.399 42.3644 331.808 40.7325 331.808 39.0707V39.0454Z" fill="#100824"/>
<path d="M34.3121 26.9904C33.7611 26.7876 33.7611 26.1795 34.3121 25.7866C35.8433 24.6849 37.0813 23.1691 37.9039 21.3904C38.7264 19.6116 39.1048 17.6317 39.0011 15.6461C39.0011 7.58439 33.7848 1.52526 23.7034 1.52526H1.48884C1.2929 1.52357 1.09892 1.56441 0.917591 1.64471C0.73626 1.72501 0.571332 1.84335 0.432775 1.99317C0.294218 2.14299 0.184783 2.32071 0.110518 2.51678C0.0362535 2.71285 -0.00151486 2.92322 4.65116e-05 3.13509V51.3786C0.0273176 51.7958 0.193037 52.1883 0.466546 52.484C0.740055 52.7798 1.103 52.959 1.48884 52.9885H25.7548C35.2736 52.9885 41.2403 46.9296 41.2403 38.4622C41.2365 36.0302 40.5795 33.6514 39.3497 31.615C38.1199 29.5787 36.3699 27.9721 34.3121 26.9904ZM12.2973 14.8854C12.2973 14.0742 12.6604 13.4656 13.4106 13.4656H22.9295C25.5436 13.4656 26.8447 15.088 26.8447 17.5091C26.8447 19.9301 25.5437 21.5401 22.3668 21.5401H13.5984C13.4262 21.5454 13.2547 21.5124 13.0947 21.4436C12.9346 21.3747 12.7895 21.2714 12.6677 21.1397C12.5458 21.008 12.4497 20.851 12.386 20.678C12.3224 20.5049 12.2925 20.3195 12.2973 20.1333V14.8854ZM24.2426 40.9212H13.2234C13.0507 40.9247 12.8787 40.89 12.7186 40.8197C12.5585 40.7495 12.4132 40.6448 12.2916 40.5121C12.17 40.3794 12.0747 40.2217 12.0111 40.0479C11.9476 39.8742 11.917 39.6882 11.9218 39.5014V33.0497C11.917 32.8629 11.9476 32.6769 12.0111 32.5032C12.0747 32.3295 12.17 32.1717 12.2916 32.039C12.4132 31.9063 12.5585 31.8017 12.7186 31.7314C12.8787 31.6611 13.0507 31.6264 13.2234 31.6299H24.2426C27.5952 31.6299 28.7204 33.4552 28.7204 36.0664C28.7204 39.0958 27.5952 40.9212 24.2426 40.9212Z" fill="#100824"/>
<path d="M81.5309 38.5C81.4399 38.3726 81.3766 38.2249 81.3461 38.0673C81.3155 37.9098 81.318 37.7469 81.3541 37.5908C81.3902 37.4346 81.4589 37.289 81.5544 37.1656C81.6499 37.0421 81.7701 36.9438 81.9059 36.8778C87.5093 33.4553 90.1117 27.1934 90.1117 20.5387C90.1117 10.246 84.5084 1.76593 72.3755 1.76593H50.7237C50.3378 1.79542 49.9749 1.97461 49.7014 2.27036C49.4279 2.5661 49.2621 2.95856 49.2349 3.37576V51.607C49.2618 52.0256 49.4269 52.4196 49.7002 52.7174C49.9735 53.0152 50.3368 53.1968 50.7237 53.2292H59.8791C60.2659 53.1968 60.6292 53.0152 60.9025 52.7174C61.1758 52.4196 61.3409 52.0256 61.3679 51.607V40.7182C61.3631 40.5314 61.3936 40.3455 61.4572 40.1717C61.5207 39.998 61.616 39.8402 61.7376 39.7075C61.8593 39.5748 62.0045 39.4702 62.1646 39.3999C62.3247 39.3296 62.4961 39.2949 62.6689 39.2984H66.4083C66.7703 39.3004 67.1273 39.3929 67.4507 39.5689C67.774 39.7448 68.0554 39.9997 68.2726 40.3128L75.7395 51.607C75.9813 52.0192 76.3111 52.3628 76.7005 52.6097C77.0899 52.8566 77.5279 52.9993 77.9787 53.0262H89.549C89.6916 53.0054 89.8265 52.9453 89.9411 52.8511C90.0556 52.7569 90.146 52.632 90.2027 52.489C90.2594 52.346 90.2804 52.1894 90.2645 52.0347C90.2486 51.8801 90.1961 51.7331 90.1117 51.607L81.5309 38.5ZM71.8243 27.1934H62.6809C62.5092 27.1968 62.3382 27.1626 62.1789 27.0931C62.0196 27.0236 61.8751 26.9206 61.7536 26.7892C61.6322 26.6579 61.5363 26.501 61.472 26.3287C61.4078 26.1565 61.3761 25.9723 61.3793 25.7866V14.6824C61.3745 14.4956 61.4051 14.3102 61.4686 14.1365C61.5321 13.9627 61.6274 13.8044 61.7491 13.6716C61.8707 13.5389 62.016 13.4343 62.1761 13.364C62.3362 13.2938 62.5082 13.2597 62.6809 13.2632H71.8243C76.6775 13.2632 78.5534 16.2925 78.5534 20.1333C78.5534 23.974 76.6775 27.2441 71.8243 27.2441V27.1934Z" fill="#100824"/>
<path d="M126.146 3.23658C125.945 2.82797 125.645 2.48687 125.277 2.25001C124.909 2.01315 124.488 1.8895 124.06 1.89289H114.917C114.488 1.90245 114.07 2.03849 113.709 2.28653C113.347 2.53457 113.056 2.88496 112.865 3.29971L94.7535 51.6826C94.706 51.8422 94.6937 52.012 94.7174 52.1777C94.7412 52.3434 94.8004 52.501 94.8903 52.6376C94.9802 52.7742 95.0984 52.8858 95.2355 52.9644C95.3725 53.0429 95.5246 53.0862 95.6796 53.09H105.948C106.359 53.1128 106.766 52.9865 107.103 52.7317C107.441 52.4769 107.691 52.1077 107.813 51.6826L109.501 46.8283C109.615 46.4536 109.842 46.1313 110.146 45.9129C110.45 45.6946 110.813 45.5927 111.177 45.6239H127.412C127.762 45.6611 128.097 45.7903 128.39 46.0002C128.682 46.2101 128.922 46.4947 129.089 46.8283L130.777 51.6826C130.943 52.0757 131.204 52.4137 131.531 52.6611C131.859 52.9085 132.242 53.0568 132.641 53.09H142.898C143.054 53.0882 143.208 53.0464 143.346 52.9687C143.485 52.891 143.605 52.7794 143.696 52.6425C143.787 52.5056 143.847 52.3475 143.872 52.1808C143.896 52.0141 143.884 51.8432 143.836 51.6826L126.146 3.23658ZM123.532 33.6582H115.69C115.552 33.6565 115.416 33.6173 115.296 33.5449C115.175 33.4725 115.073 33.3692 114.998 33.2435C114.924 33.1177 114.88 32.9739 114.87 32.8251C114.859 32.6762 114.884 32.5268 114.94 32.3906L119.23 19.8796C119.275 19.7865 119.342 19.7082 119.425 19.6537C119.507 19.5991 119.602 19.5707 119.699 19.5707C119.796 19.5707 119.891 19.5991 119.974 19.6537C120.056 19.7082 120.124 19.7865 120.168 19.8796L124.458 32.3906C124.532 32.5452 124.564 32.7187 124.55 32.8919C124.536 33.0651 124.478 33.2308 124.381 33.3697C124.284 33.5086 124.154 33.6151 124.004 33.6773C123.854 33.7395 123.69 33.7548 123.532 33.7213V33.6582Z" fill="#100824"/>
<path d="M162.159 1.5638H152.781C152.395 1.59329 152.032 1.77186 151.758 2.06761C151.485 2.36335 151.319 2.75581 151.292 3.17301V51.4165C151.319 51.8337 151.485 52.2268 151.758 52.5226C152.032 52.8183 152.395 52.9969 152.781 53.0264H162.159C162.546 52.9972 162.91 52.8187 163.186 52.5232C163.461 52.2277 163.629 51.8348 163.659 51.4165V3.16063C163.659 2.94875 163.62 2.73901 163.544 2.54356C163.469 2.34812 163.358 2.17107 163.218 2.02243C163.079 1.87378 162.913 1.75644 162.731 1.67768C162.549 1.59893 162.355 1.56044 162.159 1.5638Z" fill="#100824"/>
<path d="M216.106 1.56387H206.951C206.565 1.59336 206.202 1.77193 205.928 2.06768C205.655 2.36342 205.489 2.75588 205.462 3.17308V29.0065C205.462 29.1026 205.432 29.1956 205.378 29.2714C205.323 29.3471 205.246 29.4009 205.16 29.4243C205.074 29.4476 204.983 29.4391 204.901 29.4001C204.82 29.3611 204.753 29.2937 204.711 29.2089L185.311 2.76769C185.017 2.38101 184.647 2.07145 184.226 1.86281C183.806 1.65418 183.347 1.55231 182.884 1.56387H175.417C175.03 1.59302 174.666 1.77155 174.39 2.06706C174.115 2.36257 173.946 2.75478 173.916 3.17308V51.4166C173.946 51.8349 174.115 52.2277 174.39 52.5232C174.666 52.8188 175.03 52.9973 175.417 53.0264H184.56C184.946 52.9969 185.309 52.8184 185.583 52.5226C185.856 52.2269 186.022 51.8338 186.049 51.4166V25.5838C186.049 25.4877 186.079 25.3947 186.134 25.3189C186.189 25.2432 186.265 25.1894 186.351 25.166C186.438 25.1427 186.528 25.1512 186.61 25.1902C186.691 25.2292 186.758 25.296 186.8 25.3808L206.4 51.6072C206.684 52.0092 207.052 52.3328 207.473 52.553C207.895 52.7731 208.358 52.8837 208.826 52.8748H216.106C216.492 52.8453 216.855 52.6661 217.128 52.3704C217.402 52.0746 217.568 51.6822 217.595 51.265V3.1607C217.565 2.74576 217.398 2.35649 217.125 2.06335C216.852 1.77021 216.49 1.59299 216.106 1.56387Z" fill="#100824"/>
<path d="M388.557 1.36047H427.675C427.85 1.35523 428.025 1.38876 428.188 1.45888C428.351 1.52901 428.498 1.63428 428.622 1.76835C428.746 1.90241 428.844 2.06258 428.909 2.23873C428.973 2.41488 429.004 2.60315 429 2.79267V4.42788C429 5.23912 428.425 5.69545 427.675 5.69545H410.361V52.1008C410.366 52.2887 410.335 52.4758 410.271 52.6504C410.207 52.825 410.11 52.9836 409.987 53.1165C409.864 53.2494 409.717 53.354 409.556 53.4235C409.394 53.493 409.221 53.5259 409.048 53.5206H407.36C407.185 53.5258 407.012 53.4928 406.85 53.4235C406.688 53.3541 406.54 53.2498 406.416 53.1171C406.293 52.9844 406.195 52.8257 406.13 52.651C406.064 52.4764 406.032 52.2893 406.035 52.1008V5.69545H388.545C388.216 5.71282 387.894 5.58972 387.648 5.35256C387.403 5.11541 387.253 4.78323 387.232 4.42788V2.80567C387.226 2.6151 387.256 2.42505 387.32 2.2474C387.384 2.06975 387.481 1.90812 387.605 1.77268C387.729 1.63724 387.878 1.5304 388.041 1.4595C388.205 1.3886 388.38 1.35514 388.557 1.36047Z" fill="#100824"/>
<path d="M229.563 2.03217V15.4307C229.539 15.7424 229.403 16.0313 229.183 16.2353C228.964 16.4392 228.679 16.5417 228.391 16.5206H226.89C226.14 16.5206 225.577 16.0518 225.577 15.4307V2.03217" fill="#100824"/>
<path d="M292.49 1.89282V15.2784C292.466 15.5901 292.329 15.8791 292.11 16.083C291.891 16.287 291.606 16.3894 291.318 16.3683H289.806C289.055 16.3683 288.492 15.8995 288.492 15.2784V1.89282" fill="#100824"/>
<path d="M366.307 5.48013C370.335 5.48013 374.271 6.77128 377.62 9.19061C380.969 11.6099 383.578 15.0486 385.119 19.0718C386.661 23.095 387.064 27.5222 386.278 31.7932C385.492 36.0642 383.553 39.9872 380.706 43.0664C377.858 46.1456 374.23 48.2427 370.28 49.0923C366.33 49.9418 362.236 49.5054 358.515 47.839C354.795 46.1725 351.614 43.3505 349.377 39.7298C347.14 36.109 345.945 31.8526 345.945 27.4979C345.951 21.6605 348.099 16.0638 351.916 11.9362C355.733 7.80853 360.909 5.48684 366.307 5.48013ZM366.307 0.967529C361.455 0.967529 356.711 2.5235 352.676 5.43867C348.642 8.35383 345.496 12.4972 343.639 17.345C341.782 22.1927 341.297 27.527 342.243 32.6734C343.19 37.8197 345.527 42.5467 348.958 46.257C352.389 49.9673 356.762 52.4946 361.521 53.5182C366.28 54.5419 371.214 54.0161 375.697 52.008C380.18 50 384.012 46.5999 386.708 42.237C389.404 37.8742 390.843 32.745 390.843 27.4979C390.843 20.4617 388.258 13.7135 383.656 8.73817C379.055 3.76281 372.814 0.967529 366.307 0.967529Z" fill="#FFA9C4"/>
</svg>
